<?xml version="1.0" encoding="UTF-8" standalone="no"?>
<svg
   id="svg8"
   version="1.1"
   height="496"
   width="496"
   sodipodi:docname="aeryn-logo-symbolic.svg"
   inkscape:version="1.4 (e7c3feb100, 2024-10-09)"
   xmlns:inkscape="http://www.inkscape.org/namespaces/inkscape"
   xmlns:sodipodi="http://sodipodi.sourceforge.net/DTD/sodipodi-0.dtd"
   xmlns:xlink="http://www.w3.org/1999/xlink"
   xmlns="http://www.w3.org/2000/svg"
   xmlns:svg="http://www.w3.org/2000/svg"
   xmlns:rdf="http://www.w3.org/1999/02/22-rdf-syntax-ns#"
   xmlns:cc="http://creativecommons.org/ns#"
   xmlns:dc="http://purl.org/dc/elements/1.1/">
  <sodipodi:namedview
     id="namedview1"
     pagecolor="#ffffff"
     bordercolor="#000000"
     borderopacity="0.25"
     inkscape:showpageshadow="2"
     inkscape:pageopacity="0.0"
     inkscape:pagecheckerboard="0"
     inkscape:deskcolor="#d1d1d1"
     inkscape:zoom="0.90725806"
     inkscape:cx="358.22222"
     inkscape:cy="309.72445"
     inkscape:window-width="1904"
     inkscape:window-height="995"
     inkscape:window-x="20"
     inkscape:window-y="20"
     inkscape:window-maximized="0"
     inkscape:current-layer="svg8" />
  <metadata
     id="metadata14">
    <rdf:RDF>
      <cc:Work
         rdf:about="">
        <dc:format>image/svg+xml</dc:format>
        <dc:type
           rdf:resource="http://purl.org/dc/dcmitype/StillImage" />
      </cc:Work>
    </rdf:RDF>
  </metadata>
  <defs
     id="defs12">
    <linearGradient
       id="linearGradient939"
       x1="237.19"
       x2="237.07001"
       y1="296.20001"
       y2="304.07999"
       gradientTransform="matrix(0.04476,0,0,0.044679,-8.5923,-4.6302)"
       gradientUnits="userSpaceOnUse"
       xlink:href="#linearGradient937" />
    <linearGradient
       id="linearGradient937">
      <stop
         stop-color="#001313"
         offset="0"
         id="stop1" />
      <stop
         stop-color="#001313"
         stop-opacity="0"
         offset="1"
         id="stop2" />
    </linearGradient>
    <linearGradient
       id="linearGradient5185"
       x1="994.81"
       x2="982.34003"
       y1="1533.3"
       y2="1556.8"
       gradientTransform="matrix(0.084141,0,0,0.083989,-76.331,-126.67)"
       gradientUnits="userSpaceOnUse"
       xlink:href="#linearGradient4353" />
    <linearGradient
       id="linearGradient4353">
      <stop
         stop-color="#020202"
         offset="0"
         id="stop3" />
      <stop
         stop-color="#020202"
         stop-opacity="0"
         offset="1"
         id="stop4" />
    </linearGradient>
    <linearGradient
       id="linearGradient9102"
       x1="1022.5"
       x2="1018.6"
       y1="1582.4"
       y2="1575.6"
       gradientTransform="matrix(0.086381,0,0,0.081808,-79.192,-124.97)"
       gradientUnits="userSpaceOnUse"
       xlink:href="#linearGradient4353" />
    <linearGradient
       id="linearGradient11890"
       x1="940.42999"
       x2="930.59003"
       y1="1612.5"
       y2="1594.5"
       gradientTransform="matrix(0.084141,0,0,0.083989,-76.331,-126.67)"
       gradientUnits="userSpaceOnUse"
       xlink:href="#linearGradient4353" />
    <linearGradient
       id="linearGradient11670"
       x1="965.59998"
       x2="951.65997"
       y1="1571.4"
       y2="1571.3"
       gradientTransform="matrix(0.084141,0,0,0.083989,-76.331,-126.67)"
       gradientUnits="userSpaceOnUse"
       xlink:href="#linearGradient4353" />
    <linearGradient
       id="linearGradient13770"
       x1="946.22998"
       x2="961.37"
       y1="1655.9"
       y2="1655.8"
       gradientTransform="matrix(0.084141,0,0,0.083989,-76.331,-126.67)"
       gradientUnits="userSpaceOnUse"
       xlink:href="#linearGradient4353" />
    <linearGradient
       id="linearGradient2816"
       x1="366.14999"
       x2="350.92001"
       y1="427.32001"
       y2="419.64001"
       gradientTransform="matrix(0.04476,0,0,0.044679,-10.921,-4.4349)"
       gradientUnits="userSpaceOnUse"
       xlink:href="#linearGradient937" />
    <linearGradient
       id="linearGradient12421"
       x1="936.34003"
       x2="933.38"
       y1="1628.8"
       y2="1623"
       gradientTransform="matrix(0.084141,0,0,0.083989,-76.331,-126.67)"
       gradientUnits="userSpaceOnUse"
       xlink:href="#linearGradient4353" />
    <linearGradient
       id="linearGradient13391"
       x1="950.33002"
       x2="941.96997"
       y1="1618.6"
       y2="1645.8"
       gradientTransform="matrix(0.084141,0,0,0.083989,-76.331,-126.67)"
       gradientUnits="userSpaceOnUse"
       xlink:href="#linearGradient4353" />
    <linearGradient
       id="linearGradient13599"
       x1="1008.2"
       x2="1015.7"
       y1="1681.3"
       y2="1668.4"
       gradientTransform="matrix(0.084141,0,0,0.083989,-76.331,-126.67)"
       gradientUnits="userSpaceOnUse"
       xlink:href="#linearGradient4353" />
    <linearGradient
       id="linearGradient18175"
       x1="1148.3"
       x2="1145.4"
       y1="1585.5"
       y2="1630"
       gradientTransform="matrix(0.34992,0,0,0.34992,-282.87,-491.67)"
       gradientUnits="userSpaceOnUse"
       xlink:href="#linearGradient18299" />
    <linearGradient
       id="linearGradient18299">
      <stop
         stop-color="#008066"
         stop-opacity="0"
         offset="0"
         id="stop21" />
      <stop
         stop-color="#0fc"
         offset="1"
         id="stop22" />
    </linearGradient>
    <linearGradient
       id="linearGradient18632"
       x1="1148.3"
       x2="1145.4"
       y1="1585.5"
       y2="1630"
       gradientTransform="matrix(0.26565,0,0,0.26565,-211.15,-375.49)"
       gradientUnits="userSpaceOnUse"
       xlink:href="#linearGradient18299" />
    <linearGradient
       id="linearGradient18659"
       x1="1148.3"
       x2="1145.4"
       y1="1585.5"
       y2="1630"
       gradientTransform="matrix(0.13679,0,0,0.13679,-53.624,-195.03)"
       gradientUnits="userSpaceOnUse"
       xlink:href="#linearGradient18299" />
    <linearGradient
       id="linearGradient3254"
       x1="348.04999"
       x2="361.20999"
       y1="194.78"
       y2="187.24001"
       gradientTransform="matrix(0.04476,0,0,0.044679,-10.921,-4.4349)"
       gradientUnits="userSpaceOnUse"
       xlink:href="#linearGradient937" />
  </defs>
  <g
     id="g1"
     style="fill-opacity:1;fill:#cccccc">
    <path
       d="m 252.64908,89.037127 c -0.35882,0.418622 -4.72444,8.133219 -9.8077,17.043873 -5.02346,8.97047 -12.85767,22.78498 -17.4027,30.67898 l -8.19302,14.41255 -24.51927,0.41862 c -13.45569,0.23921 -36.00145,0.35882 -50.05517,0.23921 l -25.59572,-0.17941 -1.25587,2.99016 c -2.39212,5.50188 -10.70475,25.53591 -10.70475,25.77512 0,0.11961 21.40951,0.23922 47.54345,0.23922 26.13395,0 47.54345,0.23921 47.54345,0.47842 0,0.47842 -9.03027,16.86447 -16.86447,30.61918 l -3.22937,5.68129 -53.88257,0.17941 -53.822772,0.11961 -2.810745,6.51853 c -1.495077,3.58819 -4.246019,10.04692 -5.980308,14.35274 l -3.28917,7.8342 h 51.430645 c 37.85535,0 51.37085,0.17941 51.37085,0.65784 0,0.41862 -0.59803,1.61468 -1.25586,2.75094 -0.71764,1.13626 -1.13626,2.15291 -1.01666,2.33232 0.17941,0.11961 4.96366,1.61468 10.70475,3.28917 10.46554,3.10976 66.50103,19.31639 68.05591,19.73502 0.95685,0.29901 2.27252,-1.7941 18.95758,-31.0378 6.45873,-11.24298 11.84101,-20.39285 11.90081,-20.33305 0.1196,0.11961 1.37547,2.33232 2.81074,4.96365 1.43528,2.63134 4.66464,8.25283 7.17637,12.55865 7.89401,13.6351 11.36259,19.61541 13.93412,24.22025 10.94396,19.55561 55.13844,96.34276 57.17175,99.39272 14.77136,22.06733 39.23082,37.49653 65.54417,41.44353 5.8009,0.89705 26.49277,1.19606 59.14525,0.89705 h 1.9137 l -4.36563,-7.6548 c -2.33232,-4.18621 -9.09007,-16.08702 -14.95077,-26.43296 -5.8607,-10.34593 -13.39589,-23.68202 -16.74486,-29.60252 -3.40878,-5.92051 -9.6881,-17.10368 -14.05373,-24.81828 -4.36562,-7.7146 -15.01057,-26.43296 -23.62221,-41.56314 -8.61165,-15.13018 -19.79482,-34.80539 -24.81828,-43.65625 -30.978,-54.66001 -70.80685,-124.62962 -77.08617,-135.394172 l -5.7411,-9.747902 -21.70851,-0.119606 c -17.28309,-0.0598 -21.88793,0.119606 -22.42616,0.717637 z"
       id="path1"
       style="stroke:none;stroke-width:0.0598031;fill-opacity:1;fill:#cccccc" />
    <path
       d="m 71.146733,153.32544 c -4.425428,1.61468 -7.894007,5.8009 -8.791053,10.76455 -1.076455,5.50189 2.930351,12.43904 8.372431,14.53215 3.827398,1.43527 9.688099,0.89705 12.857663,-1.19606 7.116566,-4.72444 8.073415,-14.89097 1.913698,-20.87128 -3.707791,-3.58818 -9.568493,-4.90385 -14.352739,-3.22936 z"
       id="path2"
       style="stroke:none;stroke-width:0.0598031;fill-opacity:1;fill:#cccccc" />
    <path
       d="m 27.968909,218.86961 c -4.66464,1.49508 -7.834203,4.36563 -9.269477,8.37243 -3.229367,9.26948 2.930351,18.23994 12.558647,18.23994 12.080222,0 18.299742,-13.99392 10.226326,-22.84477 -2.750941,-3.10976 -9.747902,-5.02346 -13.515496,-3.7676 z"
       id="path3"
       style="stroke:none;stroke-width:0.0598031;fill-opacity:1;fill:#cccccc" />
    <path
       d="m 81.851484,297.69007 c -1.315667,3.22937 -4.006806,9.6283 -5.920505,14.23314 l -3.528381,8.37243 24.399656,0.29901 24.399656,0.29902 -2.57153,4.48523 c -3.40878,5.98031 -26.014341,45.92876 -37.376927,65.90299 -4.963655,8.85086 -9.030265,16.14683 -9.030265,16.26644 0,0.11961 11.781207,0.17941 26.193749,0.11961 21.469303,-0.11961 27.090793,-0.29902 31.516223,-1.13626 20.87128,-3.8274 37.25732,-12.08022 51.84927,-26.01434 7.7146,-7.35578 13.33609,-15.07038 19.55561,-26.79178 l 2.57153,-4.84405 30.32016,-18.59876 c 39.82885,-24.51926 61.23836,-37.79554 61.59717,-38.09456 0.11961,-0.17941 -47.36403,-0.29902 -105.61223,-0.29902 H 84.303411 Z"
       id="path4"
       style="stroke:none;stroke-width:0.0598031;fill-opacity:1;fill:#cccccc" />
    <path
       d="m 37.716811,293.74307 c -6.817551,3.40878 -9.32928,11.36259 -5.800899,18.35955 3.348973,6.69794 10.884161,9.14987 17.940924,5.8607 5.202868,-2.39213 7.714598,-6.93716 7.295976,-13.15668 -0.299015,-4.54503 -2.152911,-7.8342 -5.980308,-10.34593 -3.408775,-2.27252 -9.747902,-2.63134 -13.455693,-0.71764 z"
       id="path5"
       style="stroke:none;stroke-width:0.0598031;fill-opacity:1;fill:#cccccc" />
  </g>
</svg>
