<?xml version="1.0" encoding="UTF-8" standalone="no"?>
<svg
   width="496"
   height="496"
   viewBox="0 0 496 496"
   version="1.1"
   id="svg8"
   sodipodi:docname="bazzite-logo-symbolic.svg"
   inkscape:version="1.4.2 (ebf0e940d0, 2025-05-08)"
   xmlns:inkscape="http://www.inkscape.org/namespaces/inkscape"
   xmlns:sodipodi="http://sodipodi.sourceforge.net/DTD/sodipodi-0.dtd"
   xmlns="http://www.w3.org/2000/svg"
   xmlns:svg="http://www.w3.org/2000/svg">
  <sodipodi:namedview
     id="namedview8"
     pagecolor="#ffffff"
     bordercolor="#000000"
     borderopacity="0.25"
     inkscape:showpageshadow="2"
     inkscape:pageopacity="0.0"
     inkscape:pagecheckerboard="0"
     inkscape:deskcolor="#d1d1d1"
     showgrid="false"
     inkscape:zoom="1.1512097"
     inkscape:cx="228.45534"
     inkscape:cy="248"
     inkscape:window-width="1440"
     inkscape:window-height="831"
     inkscape:window-x="0"
     inkscape:window-y="0"
     inkscape:window-maximized="1"
     inkscape:current-layer="svg8" />
  <defs
     id="defs2">
    <linearGradient
       id="linear0"
       gradientUnits="userSpaceOnUse"
       x1="50"
       y1="50"
       x2="550"
       y2="550"
       gradientTransform="matrix(0.918519,0,0,0.918519,-27.555556,-27.555556)">
      <stop
         offset="0.0684898"
         style="stop-color:rgb(0%,27.843139%,67.058825%);stop-opacity:1;"
         id="stop1" />
      <stop
         offset="0.741212"
         style="stop-color:rgb(54.11765%,16.862746%,88.627452%);stop-opacity:1;"
         id="stop2" />
    </linearGradient>
  </defs>
  <g
     id="surface1">
    <path
       id="path2"
       style="stroke:none;fill-rule:nonzero;fill:#cccccc;fill-opacity:1"
       d="M 110.22266 18.371094 C 59.492188 18.371094 18.371094 59.492188 18.371094 110.22266 L 18.371094 135.94141 L 135.94141 135.94141 L 135.94141 18.371094 L 110.22266 18.371094 z M 194.72656 18.371094 L 194.72656 135.94141 L 317.97656 135.94141 C 369.625 135.94141 411.49609 177.80859 411.49609 229.46094 C 411.49609 329.99609 329.99609 411.49609 229.46094 411.49609 C 177.80859 411.49609 135.94141 369.625 135.94141 317.97656 L 135.94141 194.72656 L 18.371094 194.72656 L 18.371094 248 C 18.371094 374.82031 121.17969 477.62891 248 477.62891 C 374.82031 477.62891 477.62891 374.82031 477.62891 248 C 477.62891 121.17969 374.82031 18.371094 248 18.371094 L 194.72656 18.371094 z M 194.72656 194.72656 L 194.72656 317.97656 C 194.72656 337.16016 210.27734 352.71094 229.46094 352.71094 C 297.52734 352.71094 352.71094 297.52734 352.71094 229.46094 C 352.71094 210.27734 337.16016 194.72656 317.97656 194.72656 L 194.72656 194.72656 z " />
  </g>
</svg>
