<?xml version="1.0" encoding="UTF-8" standalone="no"?>
<svg
   id="svg8"
   version="1.1"
   height="496"
   width="496"
   sodipodi:docname="postmarket-logo-symbolic.svg"
   inkscape:version="1.4.2 (ebf0e940d0, 2025-05-08)"
   xmlns:inkscape="http://www.inkscape.org/namespaces/inkscape"
   xmlns:sodipodi="http://sodipodi.sourceforge.net/DTD/sodipodi-0.dtd"
   xmlns="http://www.w3.org/2000/svg"
   xmlns:svg="http://www.w3.org/2000/svg"
   xmlns:rdf="http://www.w3.org/1999/02/22-rdf-syntax-ns#"
   xmlns:cc="http://creativecommons.org/ns#"
   xmlns:dc="http://purl.org/dc/elements/1.1/">
  <sodipodi:namedview
     id="namedview1"
     pagecolor="#ffffff"
     bordercolor="#000000"
     borderopacity="0.25"
     inkscape:showpageshadow="2"
     inkscape:pageopacity="0.0"
     inkscape:pagecheckerboard="0"
     inkscape:deskcolor="#d1d1d1"
     inkscape:zoom="1.0321478"
     inkscape:cx="249.47977"
     inkscape:cy="208.78793"
     inkscape:window-width="1702"
     inkscape:window-height="1350"
     inkscape:window-x="26"
     inkscape:window-y="23"
     inkscape:window-maximized="0"
     inkscape:current-layer="svg8" />
  <metadata
     id="metadata14">
    <rdf:RDF>
      <cc:Work
         rdf:about="">
        <dc:format>image/svg+xml</dc:format>
        <dc:type
           rdf:resource="http://purl.org/dc/dcmitype/StillImage" />
      </cc:Work>
    </rdf:RDF>
  </metadata>
  <defs
     id="defs12" />
  <g
     id="g1"
     transform="translate(2.4550915,18.191915)"
     style="fill:#cccccc;fill-opacity:1">
    <polygon
       points="29.8,17 29.7,17.5 25.9,27.8 15,26 0,0 65,0 58,8.5 65,17 "
       fill="#009900"
       id="polygon1"
       transform="matrix(-4.6033297,0,0,-4.6033297,475.71141,429.11597)"
       style="fill:#cccccc;fill-opacity:1" />
    <g
       transform="matrix(2.3016648,-3.9866004,3.9866004,2.3016648,15.378407,429.11597)"
       id="g2"
       style="fill:#cccccc;fill-opacity:1">
      <polygon
         points="29.8,17 29.7,17.5 25.9,27.8 15,26 0,0 65,0 58,8.5 65,17 "
         fill="#009900"
         id="polygon2"
         style="fill:#cccccc;fill-opacity:1" />
    </g>
    <polygon
       points="25.9,27.8 15,26 0,0 65,0 58,8.5 65,17 29.8,17 29.7,17.5 "
       fill="#009900"
       id="polygon3"
       transform="matrix(2.3016648,3.9866004,-3.9866004,2.3016648,245.54491,30.455921)"
       style="fill:#cccccc;fill-opacity:1" />
  </g>
</svg>
